<?xml version="1.0" encoding="iso-8859-1"?>
<!-- Generator: Adobe Illustrator 19.0.0, SVG Export Plug-In . SVG Version: 6.00 Build 0)  -->
<svg version="1.1" id="Capa_1" xmlns="http://www.w3.org/2000/svg" xmlns:xlink="http://www.w3.org/1999/xlink" x="0px" y="0px"
	 viewBox="0 0 512 512" style="enable-background:new 0 0 512 512;" xml:space="preserve">
<g>
	<g>
		<g>
			<path d="M433.734,317.398c-3.89-1.417-8.196,0.59-9.613,4.483l-13.437,36.917c-1.416,3.892,0.59,8.196,4.483,9.613
				c0.847,0.308,1.712,0.454,2.564,0.454c3.063,0,5.94-1.892,7.048-4.937l13.437-36.917
				C439.633,323.12,437.626,318.815,433.734,317.398z"/>
			<path d="M215.426,198.476c-11.866-9.659-28.161-12.411-42.524-7.184c-17.753,6.462-29.294,23.483-28.717,42.355
				c0.124,4.063,3.456,7.271,7.492,7.271c0.078,0,0.156-0.001,0.233-0.003c4.14-0.127,7.394-3.585,7.268-7.726
				c-0.379-12.387,7.198-23.56,18.854-27.802c9.573-3.485,20.012-1.719,27.925,4.722c3.211,2.614,7.937,2.13,10.551-1.082
				C219.123,205.815,218.639,201.091,215.426,198.476z"/>
			<path d="M229.596,124.999c4.595,0,8.721,2.735,10.511,6.967c1.614,3.815,6.013,5.601,9.829,3.986
				c3.815-1.614,5.6-6.014,3.986-9.829c-4.143-9.795-13.691-16.125-24.326-16.125c-11.648,0-21.785,7.471-25.227,18.59
				c-1.225,3.957,0.99,8.158,4.947,9.382c0.739,0.228,1.485,0.337,2.22,0.337c3.201,0,6.166-2.066,7.162-5.284
				C220.185,128.224,224.564,124.999,229.596,124.999z"/>
			<path d="M133.191,385.131c-3.894-1.416-8.195,0.59-9.613,4.483l-13.437,36.917c-1.416,3.892,0.59,8.196,4.483,9.613
				c0.847,0.308,1.713,0.454,2.564,0.454c3.063,0,5.939-1.891,7.048-4.937l13.436-36.917
				C139.091,390.852,137.084,386.549,133.191,385.131z"/>
			<path d="M473.732,185.474c-2.708-2.536-4.524-5.753-5.251-9.304c-2.142-10.467-5.519-20.686-10.036-30.372
				c-1.75-3.754-6.215-5.379-9.967-3.628c-3.754,1.751-5.378,6.213-3.628,9.967c4.022,8.625,7.028,17.723,8.935,27.042
				c1.354,6.611,4.706,12.574,9.694,17.245C485.096,216.659,497,244.093,497,273.667c0,9.09-7.395,16.485-16.485,16.485H101.968
				c-4.142,0-7.5,3.358-7.5,7.5c0,4.142,3.358,7.5,7.5,7.5h378.547c17.361,0,31.485-14.124,31.485-31.485
				C512,240.388,498.052,208.242,473.732,185.474z"/>
			<path d="M400.97,226.375c0.804,0.274,1.622,0.405,2.426,0.405c3.119,0,6.032-1.961,7.097-5.077
				c6.251-18.294,1.647-38.147-12.017-51.811c-14.622-14.622-36.349-18.802-55.351-10.655c-3.807,1.633-5.569,6.042-3.937,9.849
				c1.634,3.807,6.043,5.57,9.849,3.937c13.332-5.716,28.573-2.783,38.832,7.476c9.586,9.586,12.815,23.517,8.429,36.354
				C394.958,220.771,397.05,225.034,400.97,226.375z"/>
			<path d="M160.94,451.693c-3.891-1.416-8.196,0.59-9.613,4.483l-13.436,36.917c-1.417,3.892,0.59,8.196,4.483,9.613
				c0.847,0.308,1.712,0.454,2.564,0.454c3.063,0,5.94-1.892,7.048-4.937l13.437-36.917
				C166.84,457.414,164.833,453.11,160.94,451.693z"/>
			<path d="M126.298,151.21c3.168-20.872,13.746-40.029,29.787-53.94c16.2-14.049,36.947-21.787,58.421-21.787
				c17.117,0,33.753,4.874,48.112,14.096c6.638,4.263,15.006,4.904,22.382,1.712c10.64-4.603,21.752-7.634,33.185-9.067
				c0.16-0.012,0.32-0.032,0.481-0.055c4.937-0.599,9.932-0.906,14.975-0.906c35.022,0,68.457,15.032,91.73,41.241
				c2.75,3.097,7.491,3.38,10.588,0.628c3.097-2.75,3.378-7.49,0.628-10.588c-26.117-29.413-63.64-46.281-102.946-46.281
				c-3.843,0-7.659,0.164-11.45,0.474c-16.176-32.944-49.566-53.945-86.587-53.945c-13.289,0-26.167,2.656-38.277,7.896
				c-1.176,0.509-2.472,0.433-3.466-0.206C182.003,12.864,168.267,8.84,154.137,8.84c-17.724,0-34.85,6.388-48.223,17.986
				C92.679,38.302,83.95,54.117,81.333,71.357c-0.102,0.672-0.609,1.175-1.262,1.252C37.32,77.625,5.082,113.901,5.082,156.99
				c0,13.179,10.722,23.901,23.901,23.901H43.41C16.746,203.164,0,236.645,0,273.667c0,17.361,14.124,31.485,31.485,31.485h28.059
				c4.142,0,7.5-3.358,7.5-7.5c0-4.142-3.358-7.5-7.5-7.5H31.485c-9.09,0-16.485-7.395-16.485-16.485
				c0-40.1,22.424-75.457,55.972-93.367c0.345-0.146,0.673-0.325,0.99-0.519c11.077-5.763,23.336-9.639,36.385-11.17
				C117.525,167.534,124.907,160.378,126.298,151.21z M66.168,165.891H28.984c-4.908,0-8.901-3.993-8.901-8.901
				c0-35.482,26.541-65.354,61.737-69.484c7.335-0.861,13.233-6.577,14.344-13.899c2.082-13.716,9.035-26.306,19.578-35.45
				c10.646-9.233,24.282-14.318,38.396-14.318c11.25,0,22.183,3.203,31.618,9.263c5.205,3.343,11.758,3.849,17.529,1.352
				c10.218-4.42,21.092-6.662,32.32-6.662c29.585,0,56.43,15.881,70.807,41.164c-9.365,1.881-18.511,4.737-27.368,8.568
				c-2.783,1.205-5.893,0.992-8.321-0.566c-16.781-10.778-36.221-16.475-56.217-16.475c-25.084,0-49.322,9.04-68.249,25.455
				c-18.732,16.245-31.087,38.626-34.789,63.021c-0.387,2.548-2.344,4.458-4.87,4.755C92.135,155.411,78.522,159.63,66.168,165.891z
				"/>
			<path d="M112.549,318.544c-3.891-1.415-8.196,0.59-9.613,4.483l-13.437,36.917c-1.416,3.892,0.59,8.196,4.483,9.613
				c0.847,0.308,1.712,0.454,2.564,0.454c3.063,0,5.94-1.892,7.048-4.937l13.437-36.917
				C118.448,324.265,116.441,319.961,112.549,318.544z"/>
			<path d="M353.438,317.685c-3.891-1.415-8.196,0.59-9.613,4.483l-13.436,36.917c-1.417,3.892,0.59,8.196,4.483,9.613
				c0.847,0.308,1.712,0.454,2.564,0.454c3.063,0,5.94-1.892,7.048-4.937l13.436-36.916
				C359.337,323.406,357.33,319.102,353.438,317.685z"/>
			<path d="M293.784,384.558c-3.89-1.415-8.196,0.59-9.613,4.483l-13.437,36.917c-1.416,3.892,0.59,8.196,4.483,9.613
				c0.847,0.308,1.712,0.454,2.564,0.454c3.063,0,5.94-1.892,7.048-4.937l13.437-36.917
				C299.683,390.279,297.676,385.976,293.784,384.558z"/>
			<path d="M321.533,451.12c-3.89-1.415-8.196,0.59-9.613,4.483l-13.436,36.917c-1.417,3.892,0.59,8.196,4.483,9.613
				c0.847,0.308,1.712,0.454,2.565,0.454c3.063,0,5.94-1.892,7.048-4.937l13.436-36.916
				C327.432,456.841,325.425,452.537,321.533,451.12z"/>
			<path d="M374.08,384.273c-3.891-1.415-8.196,0.59-9.613,4.483l-13.436,36.917c-1.417,3.892,0.59,8.196,4.483,9.613
				c0.847,0.308,1.712,0.454,2.564,0.454c3.063,0,5.94-1.892,7.048-4.937l13.436-36.917
				C379.979,389.992,377.973,385.69,374.08,384.273z"/>
			<path d="M241.237,451.407c-3.889-1.416-8.196,0.59-9.613,4.483l-13.437,36.917c-1.416,3.892,0.59,8.196,4.483,9.613
				c0.847,0.308,1.712,0.454,2.564,0.454c3.063,0,5.94-1.892,7.048-4.937l13.437-36.917
				C247.136,457.128,245.129,452.823,241.237,451.407z"/>
			<path d="M273.142,317.971c-3.891-1.415-8.196,0.59-9.613,4.483l-13.436,36.916c-1.416,3.892,0.59,8.196,4.483,9.613
				c0.847,0.308,1.712,0.454,2.564,0.454c3.063,0,5.94-1.892,7.048-4.937l13.436-36.917
				C279.041,323.693,277.034,319.388,273.142,317.971z"/>
			<path d="M213.488,384.846c-3.891-1.416-8.196,0.59-9.613,4.483l-13.437,36.917c-1.416,3.892,0.59,8.196,4.483,9.613
				c0.847,0.308,1.712,0.454,2.564,0.454c3.063,0,5.94-1.892,7.048-4.937l13.436-36.917
				C219.387,390.565,217.38,386.263,213.488,384.846z"/>
			<path d="M192.845,318.258c-3.89-1.416-8.196,0.59-9.613,4.483l-13.436,36.917c-1.417,3.892,0.59,8.196,4.483,9.613
				c0.847,0.308,1.712,0.454,2.564,0.454c3.063,0,5.94-1.892,7.048-4.937l13.437-36.917
				C198.745,323.979,196.738,319.674,192.845,318.258z"/>
		</g>
	</g>
</g>
<g>
</g>
<g>
</g>
<g>
</g>
<g>
</g>
<g>
</g>
<g>
</g>
<g>
</g>
<g>
</g>
<g>
</g>
<g>
</g>
<g>
</g>
<g>
</g>
<g>
</g>
<g>
</g>
<g>
</g>
</svg>
